HIERARCHY
ROOT joint_Root
{
	OFFSET 0.0 0.0 0.0
	CHANNELS 6 Xposition Yposition Zposition Zrotation Xrotation Yrotation 
	JOINT Hips
	{
		OFFSET -0.726466 93.3139 -2.00062
		CHANNELS 6 Xposition Yposition Zposition Zrotation Xrotation Yrotation 
		JOINT Spine
		{
			OFFSET 15.7357 0.0 0.0
			CHANNELS 6 Xposition Yposition Zposition Zrotation Xrotation Yrotation 
			JOINT Chest
			{
				OFFSET 8.98455 -0.406207 0.0
				CHANNELS 6 Xposition Yposition Zposition Zrotation Xrotation Yrotation 
				JOINT Neck
				{
					OFFSET 16.3773 0.0 0.0
					CHANNELS 6 Xposition Yposition Zposition Zrotation Xrotation Yrotation 
					JOINT Head
					{
						OFFSET 6.45672 0.0 0.0
						CHANNELS 6 Xposition Yposition Zposition Zrotation Xrotation Yrotation 
						End Site
						{
							OFFSET 0.0 0.0 0.0
						}
					}
				}
				JOINT Shoulder_L
				{
					OFFSET 12.9942 -0.242716 4.98039
					CHANNELS 6 Xposition Yposition Zposition Zrotation Xrotation Yrotation 
					JOINT UpperArm_L
					{
						OFFSET 5.34809 0.0 0.0
						CHANNELS 6 Xposition Yposition Zposition Zrotation Xrotation Yrotation 
						JOINT LowerArm_L
						{
							OFFSET 24.3286 1.87007e-05 0.0
							CHANNELS 6 Xposition Yposition Zposition Zrotation Xrotation Yrotation 
							JOINT Hand_L
							{
								OFFSET 22.2916 0.0 0.0
								CHANNELS 6 Xposition Yposition Zposition Zrotation Xrotation Yrotation 
								End Site
								{
									OFFSET 0.0 0.0 0.0
								}
							}
						}
					}
				}
				JOINT Shoulder_R
				{
					OFFSET 12.9945 -0.242716 -4.98039
					CHANNELS 6 Xposition Yposition Zposition Zrotation Xrotation Yrotation 
					JOINT UpperArm_R
					{
						OFFSET -5.34813 0.0 0.0
						CHANNELS 6 Xposition Yposition Zposition Zrotation Xrotation Yrotation 
						JOINT LowerArm_R
						{
							OFFSET -24.3289 0.000322201 0.0
							CHANNELS 6 Xposition Yposition Zposition Zrotation Xrotation Yrotation 
							JOINT Hand_R
							{
								OFFSET -22.2915 -0.000108084 0.0
								CHANNELS 6 Xposition Yposition Zposition Zrotation Xrotation Yrotation 
								End Site
								{
									OFFSET 0.0 0.0 0.0
								}
							}
						}
					}
				}
			}
		}
		JOINT UpperLeg_L
		{
			OFFSET -2.19248 -6.46944 0.0
			CHANNELS 6 Xposition Yposition Zposition Zrotation Xrotation Yrotation 
			JOINT LowerLeg_L
			{
				OFFSET 39.0811 0.0 -1.23785e-05
				CHANNELS 6 Xposition Yposition Zposition Zrotation Xrotation Yrotation 
				JOINT Foot_L
				{
					OFFSET 40.9854 0.0 -1.26872e-05
					CHANNELS 6 Xposition Yposition Zposition Zrotation Xrotation Yrotation 
					JOINT Toes_L
					{
						OFFSET 11.7543 0.0 0.0
						CHANNELS 6 Xposition Yposition Zposition Zrotation Xrotation Yrotation 
						End Site
						{
							OFFSET 0.0 0.0 0.0
						}
					}
				}
			}
		}
		JOINT UpperLeg_R
		{
			OFFSET -2.19251 6.46944 0.0
			CHANNELS 6 Xposition Yposition Zposition Zrotation Xrotation Yrotation 
			JOINT LowerLeg_R
			{
				OFFSET -39.0811 -0.00228153 -0.0401928
				CHANNELS 6 Xposition Yposition Zposition Zrotation Xrotation Yrotation 
				JOINT Foot_R
				{
					OFFSET -40.9854 0.0 0.0
					CHANNELS 6 Xposition Yposition Zposition Zrotation Xrotation Yrotation 
					JOINT Toes_R
					{
						OFFSET -11.7543 0.0 0.0
						CHANNELS 6 Xposition Yposition Zposition Zrotation Xrotation Yrotation 
						End Site
						{
							OFFSET 0.0 0.0 0.0
						}
					}
				}
			}
		}
	}
}
MOTION
Frames:	4
Frame Time:	0.0333333
0.000000 0.000000 0.000000 0.000000 0.000000 -0.000000 -0.415729 88.497300 -416.920000 91.425700 -6.777560 -12.453500 15.735700 0.000005 -0.000001 107.679000 80.245200 -108.378000 8.984550 -0.406207 -0.000000 10.900300 5.862400 -1.958320 16.377300 -0.000001 -0.000001 2.246420 -2.407190 2.140010 6.456720 -0.000001 -0.000000 -4.500180 -5.009860 -4.380810 12.994200 -0.242716 4.980390 -88.035700 -4.564940 -66.687600 5.348090 -0.000007 -0.000001 -66.076800 26.584300 16.651400 24.328600 0.000019 0.000005 -0.445946 -0.395246 -48.452900 22.291600 -0.000001 0.000005 -6.719680 5.593210 -10.944400 12.994500 -0.242716 -4.980390 89.646200 0.924137 -69.049300 -5.348130 -0.000001 -0.000004 -37.218700 20.262500 -38.820200 -24.328900 0.000322 -0.000009 -9.923150 -3.208300 -72.257300 -22.291500 -0.000108 -0.000004 4.318980 5.548160 -8.619500 -2.192480 -6.469440 -0.000000 173.761000 -5.437110 -50.325600 39.081100 -0.000007 -0.000012 -0.030877 0.000576 88.947800 40.985400 -0.000006 -0.000013 5.489940 -6.693960 -58.823700 11.754300 -0.000000 0.000003 -0.005177 -0.063173 -19.147300 -2.192510 6.469440 -0.000001 173.463000 12.389200 173.253000 -39.081100 -0.002282 -0.040193 0.029652 -0.035027 36.970000 -40.985400 0.000008 0.000006 2.837350 5.636030 -64.256700 -11.754300 -0.000006 -0.000006 -0.156237 -0.566905 -40.588500
0.000000 0.000000 0.000000 0.000000 0.000000 -0.000000 0.015490 91.919300 -409.424000 91.566100 -7.437600 -13.281100 15.735700 0.000005 -0.000001 110.671000 80.444800 -111.941000 8.984550 -0.406207 -0.000000 10.241000 6.674830 -3.139150 16.377300 -0.000001 -0.000001 2.759230 -2.032920 2.244370 6.456720 -0.000001 -0.000000 -4.865720 -5.773890 -3.918440 12.994200 -0.242716 4.980390 -87.496300 -5.641840 -66.021900 5.348090 -0.000007 -0.000001 -67.050200 23.998500 18.536200 24.328600 0.000019 0.000005 -0.272496 -0.232316 -49.554400 22.291600 -0.000001 0.000005 -6.313390 5.588020 -10.650400 12.994500 -0.242716 -4.980390 89.992500 0.020140 -69.518700 -5.348130 -0.000001 -0.000004 -39.766800 21.786800 -38.643200 -24.328900 0.000322 -0.000009 -8.453860 -2.696340 -72.433300 -22.291500 -0.000108 -0.000004 3.963930 5.544700 -8.458230 -2.192480 -6.469440 -0.000000 173.892000 -6.182040 -48.730000 39.081100 -0.000007 -0.000012 0.041884 -0.014612 70.759900 40.985400 -0.000006 -0.000013 5.252190 -3.509720 -62.558800 11.754300 -0.000000 0.000003 -0.005902 -0.069947 -19.423500 -2.192510 6.469440 -0.000001 171.246000 14.648100 177.808000 -39.081100 -0.002282 -0.040193 0.067644 -0.117262 28.752900 -40.985400 0.000008 0.000006 1.380190 9.905720 -44.460500 -11.754300 -0.000006 -0.000006 -0.223179 -0.682286 -45.998800
0.000000 0.000000 0.000000 0.000000 0.000000 -0.000000 0.182311 94.111500 -401.722000 90.139100 -7.188830 -12.573600 15.735700 0.000005 -0.000001 111.934000 80.101700 -113.104000 8.984550 -0.406207 -0.000000 10.738100 7.312200 -3.029590 16.377300 -0.000001 -0.000001 3.270220 -1.870720 2.616080 6.456720 -0.000001 -0.000000 -5.686930 -6.104450 -3.826880 12.994200 -0.242716 4.980390 -86.925000 -6.917650 -65.961700 5.348090 -0.000007 -0.000001 -68.288000 20.949100 19.366500 24.328600 0.000019 0.000005 -0.218534 -0.178240 -50.809800 22.291600 -0.000001 0.000005 -5.096020 5.588100 -10.655100 12.994500 -0.242716 -4.980390 90.243400 -0.676080 -70.201000 -5.348130 -0.000001 -0.000004 -42.739500 23.236100 -37.965300 -24.328900 0.000322 -0.000009 -7.735250 -2.642740 -71.246400 -22.291500 -0.000108 -0.000004 3.785990 5.544610 -8.454270 -2.192480 -6.469440 -0.000000 176.339000 -6.839980 -43.185900 39.081100 -0.000007 -0.000012 0.040553 -0.033274 50.627700 40.985400 -0.000006 -0.000013 3.261900 1.756100 -64.992700 11.754300 -0.000000 0.000003 -0.005935 -0.070253 -19.435900 -2.192510 6.469440 -0.000001 170.012000 15.661100 -177.195000 -39.081100 -0.002282 -0.040193 0.109077 -0.242761 23.541000 -40.985400 0.000008 0.000006 -5.871500 10.238000 -29.189400 -11.754300 -0.000006 -0.000006 -0.045267 -0.280460 -28.110000
0.000000 0.000000 0.000000 0.000000 0.000000 -0.000000 0.022029 94.509200 -393.595000 88.436500 -6.899030 -11.286600 15.735700 0.000005 -0.000001 113.394000 79.713700 -114.282000 8.984550 -0.406207 -0.000000 11.261100 8.078510 -2.576160 16.377300 -0.000001 -0.000001 3.377550 -2.049350 2.667470 6.456720 -0.000001 -0.000000 -5.418270 -6.439390 -3.399550 12.994200 -0.242716 4.980390 -86.439300 -8.144240 -66.286600 5.348090 -0.000007 -0.000001 -69.198700 18.187100 19.460000 24.328600 0.000019 0.000005 1.211060 0.929170 -52.506800 22.291600 -0.000001 0.000005 -3.362440 5.583860 -10.420800 12.994500 -0.242716 -4.980390 90.513200 -1.458530 -70.611100 -5.348130 -0.000001 -0.000004 -46.721400 24.744000 -36.161700 -24.328900 0.000322 -0.000009 -7.425440 -2.866160 -69.005600 -22.291500 -0.000108 -0.000004 4.366470 5.547830 -8.603880 -2.192480 -6.469440 -0.000000 179.141000 -7.517560 -36.743900 39.081100 -0.000007 -0.000012 0.007521 -0.011955 32.170800 40.985400 -0.000006 -0.000013 1.286650 4.103990 -67.245800 11.754300 -0.000000 0.000003 -0.007139 -0.080862 -19.868800 -2.192510 6.469440 -0.000001 169.942000 14.466200 -173.520000 -39.081100 -0.002282 -0.040193 0.128074 -0.260578 25.584900 -40.985400 0.000008 0.000006 -6.476910 6.835700 -27.665500 -11.754300 -0.000006 -0.000006 -0.023060 -0.183683 -24.084000
